<?xml version="1.0" standalone="no"?>
<!DOCTYPE svg PUBLIC "-//W3C//DTD SVG 20010904//EN"
 "http://www.w3.org/TR/2001/REC-SVG-20010904/DTD/svg10.dtd">
<svg version="1.0" xmlns="http://www.w3.org/2000/svg"
 width="500.000000pt" height="500.000000pt" viewBox="0 0 500.000000 500.000000"
 preserveAspectRatio="xMidYMid meet">
<metadata>
Created by potrace 1.11, written by Peter Selinger 2001-2013
</metadata>
<g transform="translate(0.000000,500.000000) scale(0.100000,-0.100000)"
fill="#000000" stroke="none">
<path d="M0 2500 l0 -2500 2500 0 2500 0 0 2500 0 2500 -2500 0 -2500 0 0
-2500z m3311 1758 c43 -19 82 -68 99 -123 13 -41 18 -261 39 -1740 6 -401 16
-886 22 -1076 11 -349 3 -605 -22 -650 -27 -52 -162 -87 -354 -91 -167 -4
-1283 11 -1353 18 -66 7 -105 38 -120 96 -11 43 -53 2320 -52 2849 0 435 23
600 92 665 62 59 53 58 673 65 805 8 932 6 976 -13z"/>
<path d="M2733 4200 c-27 -11 -47 -46 -38 -67 5 -14 10 -12 33 10 35 34 67 34
88 1 20 -30 40 -18 31 19 -10 38 -65 56 -114 37z"/>
<path d="M2152 4184 c-22 -15 -30 -48 -14 -58 5 -3 19 6 30 19 28 32 47 31 77
-1 24 -26 45 -25 45 2 0 46 -90 72 -138 38z"/>
<path d="M2380 4070 c0 -6 15 -19 33 -30 61 -37 227 -19 227 26 0 12 -6 15
-22 10 -97 -28 -116 -29 -166 -12 -59 19 -72 20 -72 6z"/>
<path d="M2130 3944 c-159 -8 -348 -26 -377 -35 -17 -5 -34 -17 -37 -25 -21
-55 -15 -735 14 -1654 6 -168 15 -474 20 -680 8 -276 14 -378 23 -387 7 -7 55
-17 107 -22 170 -18 788 -34 1123 -29 293 4 329 6 345 22 16 15 17 59 16 564
-1 539 -17 1260 -34 1582 -34 622 -32 601 -56 616 -50 33 -225 46 -659 49
-231 1 -449 1 -485 -1z m1103 -62 c21 -6 41 -12 43 -15 2 -2 9 -215 14 -473 5
-258 14 -615 20 -794 15 -468 26 -1164 20 -1310 l-5 -125 -100 -8 c-231 -17
-1372 24 -1396 51 -26 28 -92 2409 -73 2597 l7 64 40 7 c102 17 313 22 832 19
345 -1 575 -7 598 -13z"/>
<path d="M2420 1031 c-152 -47 -192 -184 -87 -298 93 -101 208 -118 305 -46
65 49 91 147 56 216 -52 102 -172 159 -274 128z m168 -91 c43 -26 66 -79 51
-117 -25 -65 -80 -94 -143 -73 -39 13 -116 91 -116 118 0 73 131 119 208 72z"/>
</g>
</svg>
